<?xml version="1.0" encoding="UTF-8" standalone="no"?>
<svg width="376" height="315" xmlns="http://www.w3.org/2000/svg">
  <!-- Network Switch SVG generated by SwitchSVGGenerator -->
  <!-- 16 port switch (data_center) -->
  <!-- Generated with theme: light -->
  <!-- Background for entire image -->
  <rect x="0" y="0" width="376" height="315" fill="#d3d3d3" />
  <!-- Switch body -->
  <rect x="10" y="10" width="356" height="160" rx="10" ry="10" fill="#c0c0c0" stroke="#000000" stroke-width="2" />
  <!-- Switch details -->
  <text x="30" y="40" font-family="Arial" font-size="16" fill="#000000">Custom Data Center Switch</text>
  <text x="30" y="60" font-family="Arial" font-size="12" fill="#000000">Model: data_center</text>
  <!-- Status LEDs -->
  <circle cx="322.0" cy="30" r="5" fill="#2ecc71" />
  <text x="332.0" y="35" font-family="Arial" font-size="12" fill="#000000">PWR</text>
  <circle cx="257.0" cy="30" r="5" fill="#f1c40f" />
  <text x="267.0" y="35" font-family="Arial" font-size="12" fill="#000000">STATUS</text>
  <circle cx="202.0" cy="30" r="5" fill="#3498db" />
  <text x="212.0" y="35" font-family="Arial" font-size="12" fill="#000000">MGMT</text>
  <!-- Switch ports -->
  <g id="port-1">
    <title>Port: 1, Label: MGMT1, Status: up, VLAN: 10</title>
    <rect x="30" y="90" width="28" height="28" fill="#1E88E5" stroke="#000000" stroke-width="1" rx="2" ry="2" />
    <text x="44" y="108" font-family="Arial" font-size="10" fill="white" text-anchor="middle" dominant-baseline="middle">MGMT1</text>
  </g>
  <g id="port-2">
    <title>Port: 2, Label: MGMT2, Status: up, VLAN: 10</title>
    <rect x="62" y="90" width="28" height="28" fill="#1E88E5" stroke="#000000" stroke-width="1" rx="2" ry="2" />
    <text x="76" y="108" font-family="Arial" font-size="10" fill="white" text-anchor="middle" dominant-baseline="middle">MGMT2</text>
  </g>
  <g id="port-3">
    <title>Port: 3, Label: 3, Status: up, VLAN: 20</title>
    <rect x="94" y="90" width="28" height="28" fill="#43A047" stroke="#000000" stroke-width="1" rx="2" ry="2" />
    <text x="108" y="108" font-family="Arial" font-size="10" fill="white" text-anchor="middle" dominant-baseline="middle">3</text>
  </g>
  <g id="port-4">
    <title>Port: 4, Label: 4, Status: up, VLAN: 20</title>
    <rect x="126" y="90" width="28" height="28" fill="#43A047" stroke="#000000" stroke-width="1" rx="2" ry="2" />
    <text x="140" y="108" font-family="Arial" font-size="10" fill="white" text-anchor="middle" dominant-baseline="middle">4</text>
  </g>
  <g id="port-5">
    <title>Port: 5, Label: 5, Status: down, VLAN: 20</title>
    <rect x="158" y="90" width="28" height="28" fill="#e74c3c" stroke="#000000" stroke-width="1" rx="2" ry="2" />
    <text x="172" y="108" font-family="Arial" font-size="10" fill="white" text-anchor="middle" dominant-baseline="middle">5</text>
    <circle cx="181" cy="95" r="3" fill="#e74c3c" stroke="white" stroke-width="0.5" />
  </g>
  <g id="port-6">
    <title>Port: 6, Label: 6, Status: up, VLAN: 20</title>
    <rect x="190" y="90" width="28" height="28" fill="#43A047" stroke="#000000" stroke-width="1" rx="2" ry="2" />
    <text x="204" y="108" font-family="Arial" font-size="10" fill="white" text-anchor="middle" dominant-baseline="middle">6</text>
  </g>
  <g id="port-7">
    <title>Port: 7, Label: SRV1, Status: up, VLAN: 30</title>
    <rect x="222" y="90" width="28" height="28" fill="#E53935" stroke="#000000" stroke-width="1" rx="2" ry="2" />
    <text x="236" y="108" font-family="Arial" font-size="10" fill="white" text-anchor="middle" dominant-baseline="middle">SRV1</text>
  </g>
  <g id="port-8">
    <title>Port: 8, Label: SRV2, Status: up, VLAN: 30</title>
    <rect x="254" y="90" width="28" height="28" fill="#E53935" stroke="#000000" stroke-width="1" rx="2" ry="2" />
    <text x="268" y="108" font-family="Arial" font-size="10" fill="white" text-anchor="middle" dominant-baseline="middle">SRV2</text>
  </g>
  <g id="port-9">
    <title>Port: 9, Label: DMZ1, Status: up, VLAN: 40</title>
    <rect x="286" y="90" width="28" height="28" fill="#FB8C00" stroke="#000000" stroke-width="1" rx="2" ry="2" />
    <text x="300" y="108" font-family="Arial" font-size="10" fill="white" text-anchor="middle" dominant-baseline="middle">DMZ1</text>
  </g>
  <g id="port-10">
    <title>Port: 10, Label: DMZ2, Status: disabled, VLAN: 40</title>
    <rect x="318" y="90" width="28" height="28" fill="#7f8c8d" stroke="#000000" stroke-width="1" rx="2" ry="2" />
    <text x="332" y="108" font-family="Arial" font-size="10" fill="white" text-anchor="middle" dominant-baseline="middle">DMZ2</text>
    <circle cx="341" cy="95" r="3" fill="#7f8c8d" stroke="white" stroke-width="0.5" />
  </g>
  <g id="port-11">
    <title>Port: 11, Label: 11, Status: up, VLAN: 1</title>
    <rect x="350" y="90" width="28" height="28" fill="#3498db" stroke="#000000" stroke-width="1" rx="2" ry="2" />
    <text x="364" y="108" font-family="Arial" font-size="10" fill="white" text-anchor="middle" dominant-baseline="middle">11</text>
  </g>
  <g id="port-12">
    <title>Port: 12, Label: 12, Status: up, VLAN: 1</title>
    <rect x="382" y="90" width="28" height="28" fill="#3498db" stroke="#000000" stroke-width="1" rx="2" ry="2" />
    <text x="396" y="108" font-family="Arial" font-size="10" fill="white" text-anchor="middle" dominant-baseline="middle">12</text>
  </g>
  <g id="port-13">
    <title>Port: 13, Label: 13, Status: up, VLAN: 1</title>
    <rect x="414" y="90" width="28" height="28" fill="#3498db" stroke="#000000" stroke-width="1" rx="2" ry="2" />
    <text x="428" y="108" font-family="Arial" font-size="10" fill="white" text-anchor="middle" dominant-baseline="middle">13</text>
  </g>
  <g id="port-14">
    <title>Port: 14, Label: 14, Status: up, VLAN: 1</title>
    <rect x="446" y="90" width="28" height="28" fill="#3498db" stroke="#000000" stroke-width="1" rx="2" ry="2" />
    <text x="460" y="108" font-family="Arial" font-size="10" fill="white" text-anchor="middle" dominant-baseline="middle">14</text>
  </g>
  <g id="port-15">
    <title>Port: 15, Label: 15, Status: up, VLAN: 1</title>
    <rect x="478" y="90" width="28" height="28" fill="#3498db" stroke="#000000" stroke-width="1" rx="2" ry="2" />
    <text x="492" y="108" font-family="Arial" font-size="10" fill="white" text-anchor="middle" dominant-baseline="middle">15</text>
  </g>
  <g id="port-16">
    <title>Port: 16, Label: 16, Status: up, VLAN: 1</title>
    <rect x="510" y="90" width="28" height="28" fill="#3498db" stroke="#000000" stroke-width="1" rx="2" ry="2" />
    <text x="524" y="108" font-family="Arial" font-size="10" fill="white" text-anchor="middle" dominant-baseline="middle">16</text>
  </g>
  <!-- SFP Ports -->
  <g id="sfp-1">
    <title>SFP Port: 17, Label: UPLINK1</title>
    <rect x="558" y="94" width="40" height="20" fill="#3498db" stroke="#000000" stroke-width="1" rx="2" ry="2" />
    <text x="578.0" y="108.0" font-family="Arial" font-size="10" fill="white" text-anchor="middle" dominant-baseline="middle">UPLINK1</text>
  </g>
  <g id="sfp-2">
    <title>SFP Port: 18, Label: UPLINK2</title>
    <rect x="602" y="94" width="40" height="20" fill="#3498db" stroke="#000000" stroke-width="1" rx="2" ry="2" />
    <text x="622.0" y="108.0" font-family="Arial" font-size="10" fill="white" text-anchor="middle" dominant-baseline="middle">UPLINK2</text>
  </g>
  <!-- Legend -->
  <text x="30" y="190" font-family="Arial" font-size="12" font-weight="bold" fill="#000000">Legend:</text>
  <rect x="30" y="210" width="10" height="10" fill="#1E88E5" stroke="#000000" stroke-width="1" />
  <text x="45" y="219" font-family="Arial" font-size="10" fill="#000000">10, Administration</text>
  <rect x="132.0" y="210" width="10" height="10" fill="#43A047" stroke="#000000" stroke-width="1" />
  <text x="147.0" y="219" font-family="Arial" font-size="10" fill="#000000">20, Servere</text>
  <rect x="203.0" y="210" width="10" height="10" fill="#E53935" stroke="#000000" stroke-width="1" />
  <text x="218.0" y="219" font-family="Arial" font-size="10" fill="#000000">30, Netværksudstyr</text>
  <rect x="30" y="235" width="10" height="10" fill="#FB8C00" stroke="#000000" stroke-width="1" />
  <text x="45" y="244" font-family="Arial" font-size="10" fill="#000000">40, Kamera netværk</text>
  <circle cx="35" cy="265" r="5" fill="#2ecc71" stroke="#000000" stroke-width="1" />
  <text x="45" y="269" font-family="Arial" font-size="10" fill="#000000">Port up</text>
  <circle cx="86.0" cy="265" r="5" fill="#e74c3c" stroke="#000000" stroke-width="1" />
  <text x="96.0" y="269" font-family="Arial" font-size="10" fill="#000000">Port down</text>
  <circle cx="150.0" cy="265" r="5" fill="#000000" stroke="#000000" stroke-width="1" />
  <text x="160.0" y="269" font-family="Arial" font-size="10" fill="#000000">Port disabled</text>
</svg>