<?xml version="1.0" encoding="UTF-8" standalone="no"?>
<svg width="270" height="250" xmlns="http://www.w3.org/2000/svg">
  <!-- Network Switch SVG generated by SwitchSVGGenerator -->
  <!-- 8 port switch (enterprise) -->
  <!-- Generated with theme: dark -->
  <!-- Background for entire image -->
  <rect x="0" y="0" width="270" height="250" fill="#2c3e50" />
  <!-- Switch body -->
  <rect x="10" y="10" width="164" height="130" rx="10" ry="10" fill="#3c4e60" stroke="#000000" stroke-width="2" />
  <!-- Switch details -->
  <text x="30" y="40" font-family="Arial" font-size="16" fill="#ffffff">8-Port Switch (Equal Spacing)</text>
  <text x="30" y="60" font-family="Arial" font-size="12" fill="#ffffff">Model: enterprise</text>
  <!-- Status LEDs -->
  <circle cx="130.0" cy="30" r="5" fill="#2ecc71" />
  <text x="140.0" y="35" font-family="Arial" font-size="12" fill="#ffffff">PWR</text>
  <!-- Switch ports -->
  <g id="port-1">
    <title>Port: 1, Label: 1, Status: up, VLAN: 1</title>
    <rect x="30" y="70" width="28" height="28" fill="#3498db" stroke="#000000" stroke-width="1" rx="2" ry="2" />
    <text x="44" y="88" font-family="Arial" font-size="10" fill="white" text-anchor="middle" dominant-baseline="middle">1</text>
    <circle cx="53" cy="75" r="3" fill="#2ecc71" stroke="#000000" stroke-width="0.5" />
  </g>
  <g id="port-2">
    <title>Port: 2, Label: 2, Status: up, VLAN: 1</title>
    <rect x="30" y="102" width="28" height="28" fill="#3498db" stroke="#000000" stroke-width="1" rx="2" ry="2" />
    <text x="44" y="120" font-family="Arial" font-size="10" fill="white" text-anchor="middle" dominant-baseline="middle">2</text>
    <circle cx="53" cy="107" r="3" fill="#2ecc71" stroke="#000000" stroke-width="0.5" />
  </g>
  <g id="port-3">
    <title>Port: 3, Label: 3, Status: up, VLAN: 1</title>
    <rect x="62" y="70" width="28" height="28" fill="#3498db" stroke="#000000" stroke-width="1" rx="2" ry="2" />
    <text x="76" y="88" font-family="Arial" font-size="10" fill="white" text-anchor="middle" dominant-baseline="middle">3</text>
    <circle cx="85" cy="75" r="3" fill="#2ecc71" stroke="#000000" stroke-width="0.5" />
  </g>
  <g id="port-4">
    <title>Port: 4, Label: 4, Status: up, VLAN: 1</title>
    <rect x="62" y="102" width="28" height="28" fill="#3498db" stroke="#000000" stroke-width="1" rx="2" ry="2" />
    <text x="76" y="120" font-family="Arial" font-size="10" fill="white" text-anchor="middle" dominant-baseline="middle">4</text>
    <circle cx="85" cy="107" r="3" fill="#2ecc71" stroke="#000000" stroke-width="0.5" />
  </g>
  <g id="port-5">
    <title>Port: 5, Label: 5, Status: up, VLAN: 1</title>
    <rect x="94" y="70" width="28" height="28" fill="#3498db" stroke="#000000" stroke-width="1" rx="2" ry="2" />
    <text x="108" y="88" font-family="Arial" font-size="10" fill="white" text-anchor="middle" dominant-baseline="middle">5</text>
    <circle cx="117" cy="75" r="3" fill="#2ecc71" stroke="#000000" stroke-width="0.5" />
  </g>
  <g id="port-6">
    <title>Port: 6, Label: 6, Status: up, VLAN: 1</title>
    <rect x="94" y="102" width="28" height="28" fill="#3498db" stroke="#000000" stroke-width="1" rx="2" ry="2" />
    <text x="108" y="120" font-family="Arial" font-size="10" fill="white" text-anchor="middle" dominant-baseline="middle">6</text>
    <circle cx="117" cy="107" r="3" fill="#2ecc71" stroke="#000000" stroke-width="0.5" />
  </g>
  <g id="port-7">
    <title>Port: 7, Label: 7, Status: up, VLAN: 1</title>
    <rect x="126" y="70" width="28" height="28" fill="#3498db" stroke="#000000" stroke-width="1" rx="2" ry="2" />
    <text x="140" y="88" font-family="Arial" font-size="10" fill="white" text-anchor="middle" dominant-baseline="middle">7</text>
    <circle cx="149" cy="75" r="3" fill="#2ecc71" stroke="#000000" stroke-width="0.5" />
  </g>
  <g id="port-8">
    <title>Port: 8, Label: 8, Status: up, VLAN: 1</title>
    <rect x="126" y="102" width="28" height="28" fill="#3498db" stroke="#000000" stroke-width="1" rx="2" ry="2" />
    <text x="140" y="120" font-family="Arial" font-size="10" fill="white" text-anchor="middle" dominant-baseline="middle">8</text>
    <circle cx="149" cy="107" r="3" fill="#2ecc71" stroke="#000000" stroke-width="0.5" />
  </g>
  <!-- Legend -->
  <text x="30" y="160" font-family="Arial" font-size="12" font-weight="bold" fill="#ffffff">Legend:</text>
  <rect x="30" y="170" width="10" height="10" fill="#3498db" stroke="#000000" stroke-width="1" />
  <text x="45" y="179" font-family="Arial" font-size="10" fill="#ffffff">1, Default</text>
</svg>