<?xml version="1.0" encoding="UTF-8" standalone="no"?>
<svg width="232" height="350" xmlns="http://www.w3.org/2000/svg">
  <!-- Network Switch SVG generated by SwitchSVGGenerator -->
  <!-- 0 port switch (enterprise) -->
  <!-- Generated with theme: dark -->
  <!-- Background for entire image -->
  <rect x="0" y="0" width="232" height="350" fill="#2c3e50" />
  <!-- Switch body -->
  <rect x="10" y="10" width="212" height="130" rx="10" ry="10" fill="#3c4e60" stroke="#000000" stroke-width="2" />
  <!-- Switch details -->
  <text x="30" y="40" font-family="Arial" font-size="16" fill="#ffffff">8-Port SFP Switch</text>
  <text x="30" y="60" font-family="Arial" font-size="12" fill="#ffffff">Model: enterprise</text>
  <!-- Status LEDs -->
  <circle cx="178.0" cy="30" r="5" fill="#2ecc71" />
  <text x="188.0" y="35" font-family="Arial" font-size="12" fill="#ffffff">PWR</text>
  <!-- Switch ports -->
  <!-- SFP Ports -->
  <g id="sfp-1">
    <title>SFP Port: 1, Label: SFP1, VLAN: 10</title>
    <rect x="30" y="70" width="40" height="20" fill="#2ecc71" stroke="#000000" stroke-width="1" rx="2" ry="2" />
    <text x="50.0" y="84.0" font-family="Arial" font-size="10" fill="white" text-anchor="middle" dominant-baseline="middle">SFP1</text>
  </g>
  <g id="sfp-2">
    <title>SFP Port: 2, Label: SFP2, VLAN: 10</title>
    <rect x="30" y="102" width="40" height="20" fill="#e74c3c" stroke="#000000" stroke-width="1" rx="2" ry="2" />
    <text x="50.0" y="116.0" font-family="Arial" font-size="10" fill="white" text-anchor="middle" dominant-baseline="middle">SFP2</text>
    <circle cx="65" cy="107" r="3" fill="#e74c3c" stroke="white" stroke-width="0.5" />
  </g>
  <g id="sfp-3">
    <title>SFP Port: 3, Label: SFP3, VLAN: 20</title>
    <rect x="74" y="70" width="40" height="20" fill="#e74c3c" stroke="#000000" stroke-width="1" rx="2" ry="2" />
    <text x="94.0" y="84.0" font-family="Arial" font-size="10" fill="white" text-anchor="middle" dominant-baseline="middle">SFP3</text>
  </g>
  <g id="sfp-4">
    <title>SFP Port: 4, Label: SFP4, VLAN: 20</title>
    <rect x="74" y="102" width="40" height="20" fill="#e74c3c" stroke="#000000" stroke-width="1" rx="2" ry="2" />
    <text x="94.0" y="116.0" font-family="Arial" font-size="10" fill="white" text-anchor="middle" dominant-baseline="middle">SFP4</text>
  </g>
  <g id="sfp-5">
    <title>SFP Port: 5, Label: SFP5, VLAN: 30</title>
    <rect x="118" y="70" width="40" height="20" fill="#f39c12" stroke="#000000" stroke-width="1" rx="2" ry="2" />
    <text x="138.0" y="84.0" font-family="Arial" font-size="10" fill="white" text-anchor="middle" dominant-baseline="middle">SFP5</text>
  </g>
  <g id="sfp-6">
    <title>SFP Port: 6, Label: SFP6, VLAN: 30</title>
    <rect x="118" y="102" width="40" height="20" fill="#7f8c8d" stroke="#000000" stroke-width="1" rx="2" ry="2" />
    <text x="138.0" y="116.0" font-family="Arial" font-size="10" fill="white" text-anchor="middle" dominant-baseline="middle">SFP6</text>
    <circle cx="153" cy="107" r="3" fill="#7f8c8d" stroke="white" stroke-width="0.5" />
  </g>
  <g id="sfp-7">
    <title>SFP Port: 7, Label: SFP7, VLAN: 40</title>
    <rect x="162" y="70" width="40" height="20" fill="#9b59b6" stroke="#000000" stroke-width="1" rx="2" ry="2" />
    <text x="182.0" y="84.0" font-family="Arial" font-size="10" fill="white" text-anchor="middle" dominant-baseline="middle">SFP7</text>
  </g>
  <g id="sfp-8">
    <title>SFP Port: 8, Label: SFP8, VLAN: 40</title>
    <rect x="162" y="102" width="40" height="20" fill="#9b59b6" stroke="#000000" stroke-width="1" rx="2" ry="2" />
    <text x="182.0" y="116.0" font-family="Arial" font-size="10" fill="white" text-anchor="middle" dominant-baseline="middle">SFP8</text>
  </g>
  <!-- Legend -->
  <text x="30" y="160" font-family="Arial" font-size="12" font-weight="bold" fill="#ffffff">Legend:</text>
  <rect x="30" y="170" width="10" height="10" fill="#2ecc71" stroke="#000000" stroke-width="1" />
  <text x="45" y="179" font-family="Arial" font-size="10" fill="#ffffff">10, Administration</text>
  <rect x="30" y="195" width="10" height="10" fill="#e74c3c" stroke="#000000" stroke-width="1" />
  <text x="45" y="204" font-family="Arial" font-size="10" fill="#ffffff">20, Servere</text>
  <rect x="30" y="220" width="10" height="10" fill="#f39c12" stroke="#000000" stroke-width="1" />
  <text x="45" y="229" font-family="Arial" font-size="10" fill="#ffffff">30, Netværksudstyr</text>
  <rect x="30" y="245" width="10" height="10" fill="#9b59b6" stroke="#000000" stroke-width="1" />
  <text x="45" y="254" font-family="Arial" font-size="10" fill="#ffffff">40, Kamera netværk</text>
</svg>