<?xml version="1.0" encoding="UTF-8" standalone="no"?>
<svg width="824" height="240" xmlns="http://www.w3.org/2000/svg">
  <!-- Network Switch SVG generated by SwitchSVGGenerator -->
  <!-- 48 port switch (enterprise) -->
  <!-- Generated with theme: light -->
  <!-- Background for entire image -->
  <rect x="0" y="0" width="824" height="240" fill="#d3d3d3" />
  <!-- Switch body -->
  <rect x="10" y="10" width="804" height="130" rx="10" ry="10" fill="#c0c0c0" stroke="#000000" stroke-width="2" />
  <!-- Switch details -->
  <text x="30" y="40" font-family="Arial" font-size="16" fill="#000000">Core Switch 1</text>
  <text x="30" y="60" font-family="Arial" font-size="12" fill="#000000">Model: enterprise</text>
  <!-- Status LEDs -->
  <circle cx="770.0" cy="30" r="5" fill="#2ecc71" />
  <text x="780.0" y="35" font-family="Arial" font-size="12" fill="#000000">PWR</text>
  <circle cx="705.0" cy="30" r="5" fill="#f1c40f" />
  <text x="715.0" y="35" font-family="Arial" font-size="12" fill="#000000">STATUS</text>
  <circle cx="650.0" cy="30" r="5" fill="#3498db" />
  <text x="660.0" y="35" font-family="Arial" font-size="12" fill="#000000">MGMT</text>
  <!-- Switch ports -->
  <g id="port-1">
    <title>Port: 1, Label: WAN, Status: up, VLAN: 10</title>
    <rect x="30" y="70" width="28" height="28" fill="#2ecc71" stroke="#000000" stroke-width="1" rx="0" ry="0" />
    <text x="44" y="88" font-family="Arial" font-size="10" fill="white" text-anchor="middle" dominant-baseline="middle">WAN</text>
    <circle cx="53" cy="75" r="3" fill="#2ecc71" stroke="#000000" stroke-width="0.5" />
  </g>
  <g id="port-2">
    <title>Port: 2, Label: DMZ, Status: up, VLAN: 10</title>
    <rect x="30" y="102" width="28" height="28" fill="#2ecc71" stroke="#000000" stroke-width="1" rx="0" ry="0" />
    <text x="44" y="120" font-family="Arial" font-size="10" fill="white" text-anchor="middle" dominant-baseline="middle">DMZ</text>
    <circle cx="53" cy="107" r="3" fill="#2ecc71" stroke="#000000" stroke-width="0.5" />
  </g>
  <g id="port-3">
    <title>Port: 3, Label: SRV1, Status: up, VLAN: 20</title>
    <rect x="62" y="70" width="28" height="28" fill="#e74c3c" stroke="#000000" stroke-width="1" rx="0" ry="0" />
    <text x="76" y="88" font-family="Arial" font-size="10" fill="white" text-anchor="middle" dominant-baseline="middle">SRV1</text>
    <circle cx="85" cy="75" r="3" fill="#2ecc71" stroke="#000000" stroke-width="0.5" />
  </g>
  <g id="port-4">
    <title>Port: 4, Label: SRV2, Status: down, VLAN: 20</title>
    <rect x="62" y="102" width="28" height="28" fill="#e74c3c" stroke="#000000" stroke-width="1" rx="0" ry="0" />
    <text x="76" y="120" font-family="Arial" font-size="10" fill="white" text-anchor="middle" dominant-baseline="middle">SRV2</text>
    <circle cx="85" cy="107" r="3" fill="#e74c3c" stroke="#000000" stroke-width="0.5" />
  </g>
  <g id="port-5">
    <title>Port: 5, Label: 5, Status: up, VLAN: 30</title>
    <rect x="94" y="70" width="28" height="28" fill="#f39c12" stroke="#000000" stroke-width="1" rx="0" ry="0" />
    <text x="108" y="88" font-family="Arial" font-size="10" fill="white" text-anchor="middle" dominant-baseline="middle">5</text>
    <circle cx="117" cy="75" r="3" fill="#2ecc71" stroke="#000000" stroke-width="0.5" />
  </g>
  <g id="port-6">
    <title>Port: 6, Label: 6, Status: up, VLAN: 30</title>
    <rect x="94" y="102" width="28" height="28" fill="#f39c12" stroke="#000000" stroke-width="1" rx="0" ry="0" />
    <text x="108" y="120" font-family="Arial" font-size="10" fill="white" text-anchor="middle" dominant-baseline="middle">6</text>
    <circle cx="117" cy="107" r="3" fill="#2ecc71" stroke="#000000" stroke-width="0.5" />
  </g>
  <g id="port-7">
    <title>Port: 7, Label: 7, Status: up, VLAN: 1</title>
    <rect x="126" y="70" width="28" height="28" fill="#3498db" stroke="#000000" stroke-width="1" rx="0" ry="0" />
    <text x="140" y="88" font-family="Arial" font-size="10" fill="white" text-anchor="middle" dominant-baseline="middle">7</text>
    <circle cx="149" cy="75" r="3" fill="#2ecc71" stroke="#000000" stroke-width="0.5" />
  </g>
  <g id="port-8">
    <title>Port: 8, Label: 8, Status: disabled, VLAN: 1</title>
    <rect x="126" y="102" width="28" height="28" fill="#7f8c8d" stroke="#000000" stroke-width="1" rx="0" ry="0" />
    <text x="140" y="120" font-family="Arial" font-size="10" fill="white" text-anchor="middle" dominant-baseline="middle">8</text>
    <circle cx="149" cy="107" r="3" fill="#000000" stroke="#000000" stroke-width="0.5" />
  </g>
  <g id="port-9">
    <title>Port: 9, Label: 9, Status: up, VLAN: 1</title>
    <rect x="158" y="70" width="28" height="28" fill="#3498db" stroke="#000000" stroke-width="1" rx="0" ry="0" />
    <text x="172" y="88" font-family="Arial" font-size="10" fill="white" text-anchor="middle" dominant-baseline="middle">9</text>
    <circle cx="181" cy="75" r="3" fill="#2ecc71" stroke="#000000" stroke-width="0.5" />
  </g>
  <g id="port-10">
    <title>Port: 10, Label: 10, Status: up, VLAN: 1</title>
    <rect x="158" y="102" width="28" height="28" fill="#3498db" stroke="#000000" stroke-width="1" rx="0" ry="0" />
    <text x="172" y="120" font-family="Arial" font-size="10" fill="white" text-anchor="middle" dominant-baseline="middle">10</text>
    <circle cx="181" cy="107" r="3" fill="#2ecc71" stroke="#000000" stroke-width="0.5" />
  </g>
  <g id="port-11">
    <title>Port: 11, Label: 11, Status: up, VLAN: 1</title>
    <rect x="190" y="70" width="28" height="28" fill="#3498db" stroke="#000000" stroke-width="1" rx="0" ry="0" />
    <text x="204" y="88" font-family="Arial" font-size="10" fill="white" text-anchor="middle" dominant-baseline="middle">11</text>
    <circle cx="213" cy="75" r="3" fill="#2ecc71" stroke="#000000" stroke-width="0.5" />
  </g>
  <g id="port-12">
    <title>Port: 12, Label: 12, Status: up, VLAN: 1</title>
    <rect x="190" y="102" width="28" height="28" fill="#3498db" stroke="#000000" stroke-width="1" rx="0" ry="0" />
    <text x="204" y="120" font-family="Arial" font-size="10" fill="white" text-anchor="middle" dominant-baseline="middle">12</text>
    <circle cx="213" cy="107" r="3" fill="#2ecc71" stroke="#000000" stroke-width="0.5" />
  </g>
  <g id="port-13">
    <title>Port: 13, Label: 13, Status: up, VLAN: 1</title>
    <rect x="222" y="70" width="28" height="28" fill="#3498db" stroke="#000000" stroke-width="1" rx="0" ry="0" />
    <text x="236" y="88" font-family="Arial" font-size="10" fill="white" text-anchor="middle" dominant-baseline="middle">13</text>
    <circle cx="245" cy="75" r="3" fill="#2ecc71" stroke="#000000" stroke-width="0.5" />
  </g>
  <g id="port-14">
    <title>Port: 14, Label: 14, Status: up, VLAN: 1</title>
    <rect x="222" y="102" width="28" height="28" fill="#3498db" stroke="#000000" stroke-width="1" rx="0" ry="0" />
    <text x="236" y="120" font-family="Arial" font-size="10" fill="white" text-anchor="middle" dominant-baseline="middle">14</text>
    <circle cx="245" cy="107" r="3" fill="#2ecc71" stroke="#000000" stroke-width="0.5" />
  </g>
  <g id="port-15">
    <title>Port: 15, Label: 15, Status: up, VLAN: 1</title>
    <rect x="254" y="70" width="28" height="28" fill="#3498db" stroke="#000000" stroke-width="1" rx="0" ry="0" />
    <text x="268" y="88" font-family="Arial" font-size="10" fill="white" text-anchor="middle" dominant-baseline="middle">15</text>
    <circle cx="277" cy="75" r="3" fill="#2ecc71" stroke="#000000" stroke-width="0.5" />
  </g>
  <g id="port-16">
    <title>Port: 16, Label: 16, Status: up, VLAN: 1</title>
    <rect x="254" y="102" width="28" height="28" fill="#3498db" stroke="#000000" stroke-width="1" rx="0" ry="0" />
    <text x="268" y="120" font-family="Arial" font-size="10" fill="white" text-anchor="middle" dominant-baseline="middle">16</text>
    <circle cx="277" cy="107" r="3" fill="#2ecc71" stroke="#000000" stroke-width="0.5" />
  </g>
  <g id="port-17">
    <title>Port: 17, Label: 17, Status: up, VLAN: 1</title>
    <rect x="286" y="70" width="28" height="28" fill="#3498db" stroke="#000000" stroke-width="1" rx="0" ry="0" />
    <text x="300" y="88" font-family="Arial" font-size="10" fill="white" text-anchor="middle" dominant-baseline="middle">17</text>
    <circle cx="309" cy="75" r="3" fill="#2ecc71" stroke="#000000" stroke-width="0.5" />
  </g>
  <g id="port-18">
    <title>Port: 18, Label: 18, Status: up, VLAN: 1</title>
    <rect x="286" y="102" width="28" height="28" fill="#3498db" stroke="#000000" stroke-width="1" rx="0" ry="0" />
    <text x="300" y="120" font-family="Arial" font-size="10" fill="white" text-anchor="middle" dominant-baseline="middle">18</text>
    <circle cx="309" cy="107" r="3" fill="#2ecc71" stroke="#000000" stroke-width="0.5" />
  </g>
  <g id="port-19">
    <title>Port: 19, Label: 19, Status: up, VLAN: 1</title>
    <rect x="318" y="70" width="28" height="28" fill="#3498db" stroke="#000000" stroke-width="1" rx="0" ry="0" />
    <text x="332" y="88" font-family="Arial" font-size="10" fill="white" text-anchor="middle" dominant-baseline="middle">19</text>
    <circle cx="341" cy="75" r="3" fill="#2ecc71" stroke="#000000" stroke-width="0.5" />
  </g>
  <g id="port-20">
    <title>Port: 20, Label: 20, Status: up, VLAN: 1</title>
    <rect x="318" y="102" width="28" height="28" fill="#3498db" stroke="#000000" stroke-width="1" rx="0" ry="0" />
    <text x="332" y="120" font-family="Arial" font-size="10" fill="white" text-anchor="middle" dominant-baseline="middle">20</text>
    <circle cx="341" cy="107" r="3" fill="#2ecc71" stroke="#000000" stroke-width="0.5" />
  </g>
  <g id="port-21">
    <title>Port: 21, Label: 21, Status: up, VLAN: 1</title>
    <rect x="350" y="70" width="28" height="28" fill="#3498db" stroke="#000000" stroke-width="1" rx="0" ry="0" />
    <text x="364" y="88" font-family="Arial" font-size="10" fill="white" text-anchor="middle" dominant-baseline="middle">21</text>
    <circle cx="373" cy="75" r="3" fill="#2ecc71" stroke="#000000" stroke-width="0.5" />
  </g>
  <g id="port-22">
    <title>Port: 22, Label: 22, Status: up, VLAN: 1</title>
    <rect x="350" y="102" width="28" height="28" fill="#3498db" stroke="#000000" stroke-width="1" rx="0" ry="0" />
    <text x="364" y="120" font-family="Arial" font-size="10" fill="white" text-anchor="middle" dominant-baseline="middle">22</text>
    <circle cx="373" cy="107" r="3" fill="#2ecc71" stroke="#000000" stroke-width="0.5" />
  </g>
  <g id="port-23">
    <title>Port: 23, Label: 23, Status: up, VLAN: 1</title>
    <rect x="382" y="70" width="28" height="28" fill="#3498db" stroke="#000000" stroke-width="1" rx="0" ry="0" />
    <text x="396" y="88" font-family="Arial" font-size="10" fill="white" text-anchor="middle" dominant-baseline="middle">23</text>
    <circle cx="405" cy="75" r="3" fill="#2ecc71" stroke="#000000" stroke-width="0.5" />
  </g>
  <g id="port-24">
    <title>Port: 24, Label: 24, Status: up, VLAN: 1</title>
    <rect x="382" y="102" width="28" height="28" fill="#3498db" stroke="#000000" stroke-width="1" rx="0" ry="0" />
    <text x="396" y="120" font-family="Arial" font-size="10" fill="white" text-anchor="middle" dominant-baseline="middle">24</text>
    <circle cx="405" cy="107" r="3" fill="#2ecc71" stroke="#000000" stroke-width="0.5" />
  </g>
  <g id="port-25">
    <title>Port: 25, Label: 25, Status: up, VLAN: 1</title>
    <rect x="414" y="70" width="28" height="28" fill="#3498db" stroke="#000000" stroke-width="1" rx="0" ry="0" />
    <text x="428" y="88" font-family="Arial" font-size="10" fill="white" text-anchor="middle" dominant-baseline="middle">25</text>
    <circle cx="437" cy="75" r="3" fill="#2ecc71" stroke="#000000" stroke-width="0.5" />
  </g>
  <g id="port-26">
    <title>Port: 26, Label: 26, Status: up, VLAN: 1</title>
    <rect x="414" y="102" width="28" height="28" fill="#3498db" stroke="#000000" stroke-width="1" rx="0" ry="0" />
    <text x="428" y="120" font-family="Arial" font-size="10" fill="white" text-anchor="middle" dominant-baseline="middle">26</text>
    <circle cx="437" cy="107" r="3" fill="#2ecc71" stroke="#000000" stroke-width="0.5" />
  </g>
  <g id="port-27">
    <title>Port: 27, Label: 27, Status: up, VLAN: 1</title>
    <rect x="446" y="70" width="28" height="28" fill="#3498db" stroke="#000000" stroke-width="1" rx="0" ry="0" />
    <text x="460" y="88" font-family="Arial" font-size="10" fill="white" text-anchor="middle" dominant-baseline="middle">27</text>
    <circle cx="469" cy="75" r="3" fill="#2ecc71" stroke="#000000" stroke-width="0.5" />
  </g>
  <g id="port-28">
    <title>Port: 28, Label: 28, Status: up, VLAN: 1</title>
    <rect x="446" y="102" width="28" height="28" fill="#3498db" stroke="#000000" stroke-width="1" rx="0" ry="0" />
    <text x="460" y="120" font-family="Arial" font-size="10" fill="white" text-anchor="middle" dominant-baseline="middle">28</text>
    <circle cx="469" cy="107" r="3" fill="#2ecc71" stroke="#000000" stroke-width="0.5" />
  </g>
  <g id="port-29">
    <title>Port: 29, Label: 29, Status: up, VLAN: 1</title>
    <rect x="478" y="70" width="28" height="28" fill="#3498db" stroke="#000000" stroke-width="1" rx="0" ry="0" />
    <text x="492" y="88" font-family="Arial" font-size="10" fill="white" text-anchor="middle" dominant-baseline="middle">29</text>
    <circle cx="501" cy="75" r="3" fill="#2ecc71" stroke="#000000" stroke-width="0.5" />
  </g>
  <g id="port-30">
    <title>Port: 30, Label: 30, Status: up, VLAN: 1</title>
    <rect x="478" y="102" width="28" height="28" fill="#3498db" stroke="#000000" stroke-width="1" rx="0" ry="0" />
    <text x="492" y="120" font-family="Arial" font-size="10" fill="white" text-anchor="middle" dominant-baseline="middle">30</text>
    <circle cx="501" cy="107" r="3" fill="#2ecc71" stroke="#000000" stroke-width="0.5" />
  </g>
  <g id="port-31">
    <title>Port: 31, Label: 31, Status: up, VLAN: 1</title>
    <rect x="510" y="70" width="28" height="28" fill="#3498db" stroke="#000000" stroke-width="1" rx="0" ry="0" />
    <text x="524" y="88" font-family="Arial" font-size="10" fill="white" text-anchor="middle" dominant-baseline="middle">31</text>
    <circle cx="533" cy="75" r="3" fill="#2ecc71" stroke="#000000" stroke-width="0.5" />
  </g>
  <g id="port-32">
    <title>Port: 32, Label: 32, Status: up, VLAN: 1</title>
    <rect x="510" y="102" width="28" height="28" fill="#3498db" stroke="#000000" stroke-width="1" rx="0" ry="0" />
    <text x="524" y="120" font-family="Arial" font-size="10" fill="white" text-anchor="middle" dominant-baseline="middle">32</text>
    <circle cx="533" cy="107" r="3" fill="#2ecc71" stroke="#000000" stroke-width="0.5" />
  </g>
  <g id="port-33">
    <title>Port: 33, Label: 33, Status: up, VLAN: 1</title>
    <rect x="542" y="70" width="28" height="28" fill="#3498db" stroke="#000000" stroke-width="1" rx="0" ry="0" />
    <text x="556" y="88" font-family="Arial" font-size="10" fill="white" text-anchor="middle" dominant-baseline="middle">33</text>
    <circle cx="565" cy="75" r="3" fill="#2ecc71" stroke="#000000" stroke-width="0.5" />
  </g>
  <g id="port-34">
    <title>Port: 34, Label: 34, Status: up, VLAN: 1</title>
    <rect x="542" y="102" width="28" height="28" fill="#3498db" stroke="#000000" stroke-width="1" rx="0" ry="0" />
    <text x="556" y="120" font-family="Arial" font-size="10" fill="white" text-anchor="middle" dominant-baseline="middle">34</text>
    <circle cx="565" cy="107" r="3" fill="#2ecc71" stroke="#000000" stroke-width="0.5" />
  </g>
  <g id="port-35">
    <title>Port: 35, Label: 35, Status: up, VLAN: 1</title>
    <rect x="574" y="70" width="28" height="28" fill="#3498db" stroke="#000000" stroke-width="1" rx="0" ry="0" />
    <text x="588" y="88" font-family="Arial" font-size="10" fill="white" text-anchor="middle" dominant-baseline="middle">35</text>
    <circle cx="597" cy="75" r="3" fill="#2ecc71" stroke="#000000" stroke-width="0.5" />
  </g>
  <g id="port-36">
    <title>Port: 36, Label: 36, Status: up, VLAN: 1</title>
    <rect x="574" y="102" width="28" height="28" fill="#3498db" stroke="#000000" stroke-width="1" rx="0" ry="0" />
    <text x="588" y="120" font-family="Arial" font-size="10" fill="white" text-anchor="middle" dominant-baseline="middle">36</text>
    <circle cx="597" cy="107" r="3" fill="#2ecc71" stroke="#000000" stroke-width="0.5" />
  </g>
  <g id="port-37">
    <title>Port: 37, Label: 37, Status: up, VLAN: 1</title>
    <rect x="606" y="70" width="28" height="28" fill="#3498db" stroke="#000000" stroke-width="1" rx="0" ry="0" />
    <text x="620" y="88" font-family="Arial" font-size="10" fill="white" text-anchor="middle" dominant-baseline="middle">37</text>
    <circle cx="629" cy="75" r="3" fill="#2ecc71" stroke="#000000" stroke-width="0.5" />
  </g>
  <g id="port-38">
    <title>Port: 38, Label: 38, Status: up, VLAN: 1</title>
    <rect x="606" y="102" width="28" height="28" fill="#3498db" stroke="#000000" stroke-width="1" rx="0" ry="0" />
    <text x="620" y="120" font-family="Arial" font-size="10" fill="white" text-anchor="middle" dominant-baseline="middle">38</text>
    <circle cx="629" cy="107" r="3" fill="#2ecc71" stroke="#000000" stroke-width="0.5" />
  </g>
  <g id="port-39">
    <title>Port: 39, Label: 39, Status: up, VLAN: 1</title>
    <rect x="638" y="70" width="28" height="28" fill="#3498db" stroke="#000000" stroke-width="1" rx="0" ry="0" />
    <text x="652" y="88" font-family="Arial" font-size="10" fill="white" text-anchor="middle" dominant-baseline="middle">39</text>
    <circle cx="661" cy="75" r="3" fill="#2ecc71" stroke="#000000" stroke-width="0.5" />
  </g>
  <g id="port-40">
    <title>Port: 40, Label: 40, Status: up, VLAN: 1</title>
    <rect x="638" y="102" width="28" height="28" fill="#3498db" stroke="#000000" stroke-width="1" rx="0" ry="0" />
    <text x="652" y="120" font-family="Arial" font-size="10" fill="white" text-anchor="middle" dominant-baseline="middle">40</text>
    <circle cx="661" cy="107" r="3" fill="#2ecc71" stroke="#000000" stroke-width="0.5" />
  </g>
  <g id="port-41">
    <title>Port: 41, Label: 41, Status: up, VLAN: 1</title>
    <rect x="670" y="70" width="28" height="28" fill="#3498db" stroke="#000000" stroke-width="1" rx="0" ry="0" />
    <text x="684" y="88" font-family="Arial" font-size="10" fill="white" text-anchor="middle" dominant-baseline="middle">41</text>
    <circle cx="693" cy="75" r="3" fill="#2ecc71" stroke="#000000" stroke-width="0.5" />
  </g>
  <g id="port-42">
    <title>Port: 42, Label: 42, Status: up, VLAN: 1</title>
    <rect x="670" y="102" width="28" height="28" fill="#3498db" stroke="#000000" stroke-width="1" rx="0" ry="0" />
    <text x="684" y="120" font-family="Arial" font-size="10" fill="white" text-anchor="middle" dominant-baseline="middle">42</text>
    <circle cx="693" cy="107" r="3" fill="#2ecc71" stroke="#000000" stroke-width="0.5" />
  </g>
  <g id="port-43">
    <title>Port: 43, Label: 43, Status: up, VLAN: 1</title>
    <rect x="702" y="70" width="28" height="28" fill="#3498db" stroke="#000000" stroke-width="1" rx="0" ry="0" />
    <text x="716" y="88" font-family="Arial" font-size="10" fill="white" text-anchor="middle" dominant-baseline="middle">43</text>
    <circle cx="725" cy="75" r="3" fill="#2ecc71" stroke="#000000" stroke-width="0.5" />
  </g>
  <g id="port-44">
    <title>Port: 44, Label: 44, Status: up, VLAN: 1</title>
    <rect x="702" y="102" width="28" height="28" fill="#3498db" stroke="#000000" stroke-width="1" rx="0" ry="0" />
    <text x="716" y="120" font-family="Arial" font-size="10" fill="white" text-anchor="middle" dominant-baseline="middle">44</text>
    <circle cx="725" cy="107" r="3" fill="#2ecc71" stroke="#000000" stroke-width="0.5" />
  </g>
  <g id="port-45">
    <title>Port: 45, Label: 45, Status: up, VLAN: 1</title>
    <rect x="734" y="70" width="28" height="28" fill="#3498db" stroke="#000000" stroke-width="1" rx="0" ry="0" />
    <text x="748" y="88" font-family="Arial" font-size="10" fill="white" text-anchor="middle" dominant-baseline="middle">45</text>
    <circle cx="757" cy="75" r="3" fill="#2ecc71" stroke="#000000" stroke-width="0.5" />
  </g>
  <g id="port-46">
    <title>Port: 46, Label: 46, Status: up, VLAN: 1</title>
    <rect x="734" y="102" width="28" height="28" fill="#3498db" stroke="#000000" stroke-width="1" rx="0" ry="0" />
    <text x="748" y="120" font-family="Arial" font-size="10" fill="white" text-anchor="middle" dominant-baseline="middle">46</text>
    <circle cx="757" cy="107" r="3" fill="#2ecc71" stroke="#000000" stroke-width="0.5" />
  </g>
  <g id="port-47">
    <title>Port: 47, Label: 47, Status: up, VLAN: 1</title>
    <rect x="766" y="70" width="28" height="28" fill="#3498db" stroke="#000000" stroke-width="1" rx="0" ry="0" />
    <text x="780" y="88" font-family="Arial" font-size="10" fill="white" text-anchor="middle" dominant-baseline="middle">47</text>
    <circle cx="789" cy="75" r="3" fill="#2ecc71" stroke="#000000" stroke-width="0.5" />
  </g>
  <g id="port-48">
    <title>Port: 48, Label: 48, Status: up, VLAN: 1</title>
    <rect x="766" y="102" width="28" height="28" fill="#3498db" stroke="#000000" stroke-width="1" rx="0" ry="0" />
    <text x="780" y="120" font-family="Arial" font-size="10" fill="white" text-anchor="middle" dominant-baseline="middle">48</text>
    <circle cx="789" cy="107" r="3" fill="#2ecc71" stroke="#000000" stroke-width="0.5" />
  </g>
  <!-- Legend -->
  <text x="30" y="160" font-family="Arial" font-size="12" font-weight="bold" fill="#000000">Legend:</text>
  <text x="30" y="171" font-family="Arial" font-size="11" font-weight="bold" fill="#000000">VLANs:</text>
  <rect x="30" y="179" width="10" height="10" fill="#2ecc71" stroke="#000000" stroke-width="1" />
  <text x="45" y="188" font-family="Arial" font-size="10" fill="#000000">10, Administration</text>
  <rect x="132.0" y="179" width="10" height="10" fill="#e74c3c" stroke="#000000" stroke-width="1" />
  <text x="147.0" y="188" font-family="Arial" font-size="10" fill="#000000">20, Servere</text>
  <rect x="203.0" y="179" width="10" height="10" fill="#f39c12" stroke="#000000" stroke-width="1" />
  <text x="218.0" y="188" font-family="Arial" font-size="10" fill="#000000">30, Netværksudstyr</text>
  <text x="30" y="204" font-family="Arial" font-size="11" font-weight="bold" fill="#000000">Port Status:</text>
  <circle cx="35" cy="217" r="5" fill="#2ecc71" stroke="#000000" stroke-width="1" />
  <text x="45" y="221" font-family="Arial" font-size="10" fill="#000000">Port up</text>
  <circle cx="86.0" cy="217" r="5" fill="#e74c3c" stroke="#000000" stroke-width="1" />
  <text x="96.0" y="221" font-family="Arial" font-size="10" fill="#000000">Port down</text>
  <circle cx="150.0" cy="217" r="5" fill="#000000" stroke="#000000" stroke-width="1" />
  <text x="160.0" y="221" font-family="Arial" font-size="10" fill="#000000">Port disabled</text>
</svg>