<?xml version="1.0" encoding="UTF-8" standalone="no"?>
<svg width="548" height="248" xmlns="http://www.w3.org/2000/svg">
  <!-- Network Switch SVG generated by SwitchSVGGenerator -->
  <!-- 24 port switch (enterprise) -->
  <!-- Generated with theme: light -->
  <!-- Background for entire image -->
  <rect x="0" y="0" width="548" height="248" fill="#d3d3d3" />
  <!-- Switch body -->
  <rect x="10" y="10" width="528" height="130" rx="10" ry="10" fill="#c0c0c0" stroke="#000000" stroke-width="2" />
  <!-- Switch details -->
  <text x="30" y="40" font-family="Arial" font-size="16" fill="#000000">24-Port Network Switch</text>
  <text x="30" y="60" font-family="Arial" font-size="12" fill="#000000">Model: enterprise</text>
  <!-- Status LEDs -->
  <circle cx="494.0" cy="30" r="5" fill="#2ecc71" />
  <text x="504.0" y="35" font-family="Arial" font-size="12" fill="#000000">PWR</text>
  <circle cx="429.0" cy="30" r="5" fill="#f1c40f" />
  <text x="439.0" y="35" font-family="Arial" font-size="12" fill="#000000">STATUS</text>
  <circle cx="374.0" cy="30" r="5" fill="#3498db" />
  <text x="384.0" y="35" font-family="Arial" font-size="12" fill="#000000">MGMT</text>
  <!-- Switch ports -->
  <g id="port-1">
    <title>Port: 1, Label: 0, Status: up, VLAN: 10</title>
    <rect x="30" y="70" width="28" height="28" fill="#2ecc71" stroke="#000000" stroke-width="1" rx="0" ry="0" />
    <text x="44" y="88" font-family="Arial" font-size="10" fill="white" text-anchor="middle" dominant-baseline="middle">0</text>
    <circle cx="53" cy="75" r="3" fill="#2ecc71" stroke="#000000" stroke-width="0.5" />
  </g>
  <g id="port-2">
    <title>Port: 2, Label: 1, Status: up, VLAN: 10</title>
    <rect x="30" y="102" width="28" height="28" fill="#2ecc71" stroke="#000000" stroke-width="1" rx="0" ry="0" />
    <text x="44" y="120" font-family="Arial" font-size="10" fill="white" text-anchor="middle" dominant-baseline="middle">1</text>
    <circle cx="53" cy="107" r="3" fill="#2ecc71" stroke="#000000" stroke-width="0.5" />
  </g>
  <g id="port-3">
    <title>Port: 3, Label: 2, Status: up, VLAN: 10</title>
    <rect x="62" y="70" width="28" height="28" fill="#2ecc71" stroke="#000000" stroke-width="1" rx="0" ry="0" />
    <text x="76" y="88" font-family="Arial" font-size="10" fill="white" text-anchor="middle" dominant-baseline="middle">2</text>
    <circle cx="85" cy="75" r="3" fill="#2ecc71" stroke="#000000" stroke-width="0.5" />
  </g>
  <g id="port-4">
    <title>Port: 4, Label: 3, Status: up, VLAN: 10</title>
    <rect x="62" y="102" width="28" height="28" fill="#2ecc71" stroke="#000000" stroke-width="1" rx="0" ry="0" />
    <text x="76" y="120" font-family="Arial" font-size="10" fill="white" text-anchor="middle" dominant-baseline="middle">3</text>
    <circle cx="85" cy="107" r="3" fill="#2ecc71" stroke="#000000" stroke-width="0.5" />
  </g>
  <g id="port-5">
    <title>Port: 5, Label: 4, Status: up, VLAN: 20</title>
    <rect x="94" y="70" width="28" height="28" fill="#e74c3c" stroke="#000000" stroke-width="1" rx="0" ry="0" />
    <text x="108" y="88" font-family="Arial" font-size="10" fill="white" text-anchor="middle" dominant-baseline="middle">4</text>
    <circle cx="117" cy="75" r="3" fill="#2ecc71" stroke="#000000" stroke-width="0.5" />
  </g>
  <g id="port-6">
    <title>Port: 6, Label: 5, Status: up, VLAN: 20</title>
    <rect x="94" y="102" width="28" height="28" fill="#e74c3c" stroke="#000000" stroke-width="1" rx="0" ry="0" />
    <text x="108" y="120" font-family="Arial" font-size="10" fill="white" text-anchor="middle" dominant-baseline="middle">5</text>
    <circle cx="117" cy="107" r="3" fill="#2ecc71" stroke="#000000" stroke-width="0.5" />
  </g>
  <g id="port-7">
    <title>Port: 7, Label: 6, Status: up, VLAN: 20</title>
    <rect x="126" y="70" width="28" height="28" fill="#e74c3c" stroke="#000000" stroke-width="1" rx="0" ry="0" />
    <text x="140" y="88" font-family="Arial" font-size="10" fill="white" text-anchor="middle" dominant-baseline="middle">6</text>
    <circle cx="149" cy="75" r="3" fill="#2ecc71" stroke="#000000" stroke-width="0.5" />
  </g>
  <g id="port-8">
    <title>Port: 8, Label: 7, Status: down, VLAN: 20</title>
    <rect x="126" y="102" width="28" height="28" fill="#e74c3c" stroke="#000000" stroke-width="1" rx="0" ry="0" />
    <text x="140" y="120" font-family="Arial" font-size="10" fill="white" text-anchor="middle" dominant-baseline="middle">7</text>
    <circle cx="149" cy="107" r="3" fill="#e74c3c" stroke="#000000" stroke-width="0.5" />
  </g>
  <g id="port-9">
    <title>Port: 9, Label: 8, Status: up, VLAN: 30</title>
    <rect x="158" y="70" width="28" height="28" fill="#f39c12" stroke="#000000" stroke-width="1" rx="0" ry="0" />
    <text x="172" y="88" font-family="Arial" font-size="10" fill="white" text-anchor="middle" dominant-baseline="middle">8</text>
    <circle cx="181" cy="75" r="3" fill="#2ecc71" stroke="#000000" stroke-width="0.5" />
  </g>
  <g id="port-10">
    <title>Port: 10, Label: 9, Status: up, VLAN: 30</title>
    <rect x="158" y="102" width="28" height="28" fill="#f39c12" stroke="#000000" stroke-width="1" rx="0" ry="0" />
    <text x="172" y="120" font-family="Arial" font-size="10" fill="white" text-anchor="middle" dominant-baseline="middle">9</text>
    <circle cx="181" cy="107" r="3" fill="#2ecc71" stroke="#000000" stroke-width="0.5" />
  </g>
  <g id="port-11">
    <title>Port: 11, Label: 10, Status: up, VLAN: 30</title>
    <rect x="190" y="70" width="28" height="28" fill="#f39c12" stroke="#000000" stroke-width="1" rx="0" ry="0" />
    <text x="204" y="88" font-family="Arial" font-size="10" fill="white" text-anchor="middle" dominant-baseline="middle">10</text>
    <circle cx="213" cy="75" r="3" fill="#2ecc71" stroke="#000000" stroke-width="0.5" />
  </g>
  <g id="port-12">
    <title>Port: 12, Label: 11, Status: up, VLAN: 30</title>
    <rect x="190" y="102" width="28" height="28" fill="#f39c12" stroke="#000000" stroke-width="1" rx="0" ry="0" />
    <text x="204" y="120" font-family="Arial" font-size="10" fill="white" text-anchor="middle" dominant-baseline="middle">11</text>
    <circle cx="213" cy="107" r="3" fill="#2ecc71" stroke="#000000" stroke-width="0.5" />
  </g>
  <g id="port-13">
    <title>Port: 13, Label: 12, Status: up, VLAN: 40</title>
    <rect x="222" y="70" width="28" height="28" fill="#9b59b6" stroke="#000000" stroke-width="1" rx="0" ry="0" />
    <text x="236" y="88" font-family="Arial" font-size="10" fill="white" text-anchor="middle" dominant-baseline="middle">12</text>
    <circle cx="245" cy="75" r="3" fill="#2ecc71" stroke="#000000" stroke-width="0.5" />
  </g>
  <g id="port-14">
    <title>Port: 14, Label: 13, Status: up, VLAN: 40</title>
    <rect x="222" y="102" width="28" height="28" fill="#9b59b6" stroke="#000000" stroke-width="1" rx="0" ry="0" />
    <text x="236" y="120" font-family="Arial" font-size="10" fill="white" text-anchor="middle" dominant-baseline="middle">13</text>
    <circle cx="245" cy="107" r="3" fill="#2ecc71" stroke="#000000" stroke-width="0.5" />
  </g>
  <g id="port-15">
    <title>Port: 15, Label: 14, Status: up, VLAN: 40</title>
    <rect x="254" y="70" width="28" height="28" fill="#9b59b6" stroke="#000000" stroke-width="1" rx="0" ry="0" />
    <text x="268" y="88" font-family="Arial" font-size="10" fill="white" text-anchor="middle" dominant-baseline="middle">14</text>
    <circle cx="277" cy="75" r="3" fill="#2ecc71" stroke="#000000" stroke-width="0.5" />
  </g>
  <g id="port-16">
    <title>Port: 16, Label: 15, Status: disabled, VLAN: 40</title>
    <rect x="254" y="102" width="28" height="28" fill="#7f8c8d" stroke="#000000" stroke-width="1" rx="0" ry="0" />
    <text x="268" y="120" font-family="Arial" font-size="10" fill="white" text-anchor="middle" dominant-baseline="middle">15</text>
    <circle cx="277" cy="107" r="3" fill="#000000" stroke="#000000" stroke-width="0.5" />
  </g>
  <g id="port-17">
    <title>Port: 17, Label: 16, Status: up, VLAN: 40</title>
    <rect x="286" y="70" width="28" height="28" fill="#9b59b6" stroke="#000000" stroke-width="1" rx="0" ry="0" />
    <text x="300" y="88" font-family="Arial" font-size="10" fill="white" text-anchor="middle" dominant-baseline="middle">16</text>
    <circle cx="309" cy="75" r="3" fill="#2ecc71" stroke="#000000" stroke-width="0.5" />
  </g>
  <g id="port-18">
    <title>Port: 18, Label: 17, Status: up, VLAN: 40</title>
    <rect x="286" y="102" width="28" height="28" fill="#9b59b6" stroke="#000000" stroke-width="1" rx="0" ry="0" />
    <text x="300" y="120" font-family="Arial" font-size="10" fill="white" text-anchor="middle" dominant-baseline="middle">17</text>
    <circle cx="309" cy="107" r="3" fill="#2ecc71" stroke="#000000" stroke-width="0.5" />
  </g>
  <g id="port-19">
    <title>Port: 19, Label: 18, Status: up, VLAN: 40</title>
    <rect x="318" y="70" width="28" height="28" fill="#9b59b6" stroke="#000000" stroke-width="1" rx="0" ry="0" />
    <text x="332" y="88" font-family="Arial" font-size="10" fill="white" text-anchor="middle" dominant-baseline="middle">18</text>
    <circle cx="341" cy="75" r="3" fill="#2ecc71" stroke="#000000" stroke-width="0.5" />
  </g>
  <g id="port-20">
    <title>Port: 20, Label: 19, Status: up, VLAN: 40</title>
    <rect x="318" y="102" width="28" height="28" fill="#9b59b6" stroke="#000000" stroke-width="1" rx="0" ry="0" />
    <text x="332" y="120" font-family="Arial" font-size="10" fill="white" text-anchor="middle" dominant-baseline="middle">19</text>
    <circle cx="341" cy="107" r="3" fill="#2ecc71" stroke="#000000" stroke-width="0.5" />
  </g>
  <g id="port-21">
    <title>Port: 21, Label: 20, Status: up, VLAN: 30</title>
    <rect x="350" y="70" width="28" height="28" fill="#f39c12" stroke="#000000" stroke-width="1" rx="0" ry="0" />
    <text x="364" y="88" font-family="Arial" font-size="10" fill="white" text-anchor="middle" dominant-baseline="middle">20</text>
    <circle cx="373" cy="75" r="3" fill="#2ecc71" stroke="#000000" stroke-width="0.5" />
  </g>
  <g id="port-22">
    <title>Port: 22, Label: 21, Status: up, VLAN: 30</title>
    <rect x="350" y="102" width="28" height="28" fill="#f39c12" stroke="#000000" stroke-width="1" rx="0" ry="0" />
    <text x="364" y="120" font-family="Arial" font-size="10" fill="white" text-anchor="middle" dominant-baseline="middle">21</text>
    <circle cx="373" cy="107" r="3" fill="#2ecc71" stroke="#000000" stroke-width="0.5" />
  </g>
  <g id="port-23">
    <title>Port: 23, Label: 22, Status: up, VLAN: 30</title>
    <rect x="382" y="70" width="28" height="28" fill="#f39c12" stroke="#000000" stroke-width="1" rx="0" ry="0" />
    <text x="396" y="88" font-family="Arial" font-size="10" fill="white" text-anchor="middle" dominant-baseline="middle">22</text>
    <circle cx="405" cy="75" r="3" fill="#2ecc71" stroke="#000000" stroke-width="0.5" />
  </g>
  <g id="port-24">
    <title>Port: 24, Label: 23, Status: up, VLAN: 30</title>
    <rect x="382" y="102" width="28" height="28" fill="#f39c12" stroke="#000000" stroke-width="1" rx="0" ry="0" />
    <text x="396" y="120" font-family="Arial" font-size="10" fill="white" text-anchor="middle" dominant-baseline="middle">23</text>
    <circle cx="405" cy="107" r="3" fill="#2ecc71" stroke="#000000" stroke-width="0.5" />
  </g>
  <!-- SFP Ports -->
  <g id="sfp-1">
    <title>SFP Port: 24, Label: SFP0, VLAN: 30</title>
    <rect x="430" y="70" width="40" height="20" fill="#f39c12" stroke="#000000" stroke-width="1" rx="2" ry="2" />
    <text x="450.0" y="84.0" font-family="Arial" font-size="10" fill="white" text-anchor="middle" dominant-baseline="middle">SFP0</text>
  </g>
  <g id="sfp-2">
    <title>SFP Port: 25, Label: SFP1, VLAN: 10</title>
    <rect x="430" y="102" width="40" height="20" fill="#2ecc71" stroke="#000000" stroke-width="1" rx="2" ry="2" />
    <text x="450.0" y="116.0" font-family="Arial" font-size="10" fill="white" text-anchor="middle" dominant-baseline="middle">SFP1</text>
  </g>
  <g id="sfp-3">
    <title>SFP Port: 26, Label: SFP2, VLAN: 20</title>
    <rect x="474" y="70" width="40" height="20" fill="#e74c3c" stroke="#000000" stroke-width="1" rx="2" ry="2" />
    <text x="494.0" y="84.0" font-family="Arial" font-size="10" fill="white" text-anchor="middle" dominant-baseline="middle">SFP2</text>
  </g>
  <g id="sfp-4">
    <title>SFP Port: 27, Label: SFP3, VLAN: 30</title>
    <rect x="474" y="102" width="40" height="20" fill="#f39c12" stroke="#000000" stroke-width="1" rx="2" ry="2" />
    <text x="494.0" y="116.0" font-family="Arial" font-size="10" fill="white" text-anchor="middle" dominant-baseline="middle">SFP3</text>
  </g>
  <!-- Legend -->
  <text x="30" y="160" font-family="Arial" font-size="12" font-weight="bold" fill="#000000">Legend:</text>
  <text x="30" y="171" font-family="Arial" font-size="11" font-weight="bold" fill="#000000">VLANs:</text>
  <rect x="30" y="179" width="10" height="10" fill="#2ecc71" stroke="#000000" stroke-width="1" />
  <text x="45" y="188" font-family="Arial" font-size="10" fill="#000000">10, Administration</text>
  <rect x="132.0" y="179" width="10" height="10" fill="#e74c3c" stroke="#000000" stroke-width="1" />
  <text x="147.0" y="188" font-family="Arial" font-size="10" fill="#000000">20, Servere</text>
  <rect x="203.0" y="179" width="10" height="10" fill="#f39c12" stroke="#000000" stroke-width="1" />
  <text x="218.0" y="188" font-family="Arial" font-size="10" fill="#000000">30, Netværksudstyr</text>
  <rect x="307.0" y="179" width="10" height="10" fill="#9b59b6" stroke="#000000" stroke-width="1" />
  <text x="322.0" y="188" font-family="Arial" font-size="10" fill="#000000">40, Kamera netværk</text>
  <text x="30" y="204" font-family="Arial" font-size="11" font-weight="bold" fill="#000000">Port Status:</text>
  <circle cx="35" cy="217" r="5" fill="#2ecc71" stroke="#000000" stroke-width="1" />
  <text x="45" y="221" font-family="Arial" font-size="10" fill="#000000">Port up</text>
  <circle cx="86.0" cy="217" r="5" fill="#e74c3c" stroke="#000000" stroke-width="1" />
  <text x="96.0" y="221" font-family="Arial" font-size="10" fill="#000000">Port down</text>
  <circle cx="150.0" cy="217" r="5" fill="#000000" stroke="#000000" stroke-width="1" />
  <text x="160.0" y="221" font-family="Arial" font-size="10" fill="#000000">Port disabled</text>
</svg>